<svg width="29" height="28" viewBox="0 0 29 28" fill="none" xmlns="http://www.w3.org/2000/svg">
<path fill-rule="evenodd" clip-rule="evenodd" d="M14.5 28C18.213 28 21.774 26.525 24.3995 23.8995C27.025 21.274 28.5 17.713 28.5 14C28.5 10.287 27.025 6.72601 24.3995 4.10051C21.774 1.475 18.213 0 14.5 0C10.787 0 7.22601 1.475 4.60051 4.10051C1.975 6.72601 0.5 10.287 0.5 14C0.5 17.713 1.975 21.274 4.60051 23.8995C7.22601 26.525 10.787 28 14.5 28ZM14.941 5.369C14.8417 5.30711 14.7306 5.26672 14.6147 5.25046C14.4989 5.23419 14.3809 5.2424 14.2685 5.27456C14.156 5.30672 14.0515 5.36211 13.9618 5.43716C13.872 5.5122 13.799 5.60524 13.7475 5.71025L11.6475 9.96625L6.9505 10.6488C6.79564 10.6707 6.65004 10.7357 6.53024 10.8363C6.41044 10.9368 6.32124 11.069 6.27276 11.2177C6.22428 11.3664 6.21847 11.5257 6.25599 11.6776C6.2935 11.8294 6.37284 11.9677 6.485 12.0767L9.887 15.3878L9.082 20.0672C9.05547 20.2212 9.07258 20.3795 9.1314 20.5243C9.19022 20.669 9.2884 20.7943 9.41481 20.8862C9.54122 20.978 9.69081 21.0325 9.84664 21.0437C10.0025 21.0548 10.1583 21.0221 10.2965 20.9492L14.5 18.7407L18.7 20.9475C18.8382 21.0204 18.994 21.0531 19.1499 21.0419C19.3057 21.0308 19.4553 20.9762 19.5817 20.8844C19.7081 20.7926 19.8063 20.6672 19.8651 20.5225C19.9239 20.3778 19.941 20.2195 19.9145 20.0655L19.113 15.3878L22.5115 12.075C22.6225 11.9657 22.7008 11.8277 22.7377 11.6765C22.7746 11.5252 22.7687 11.3666 22.7205 11.2185C22.6724 11.0704 22.5839 10.9387 22.4651 10.838C22.3463 10.7374 22.2017 10.6719 22.0477 10.6488L17.349 9.96625L15.249 5.71025C15.1802 5.56997 15.0735 5.45175 14.941 5.369Z" fill="url(#paint0_linear_4302_40491)"/>
<defs>
<linearGradient id="paint0_linear_4302_40491" x1="14.5" y1="0" x2="14.5" y2="28" gradientUnits="userSpaceOnUse">
<stop offset="0.190625" stop-color="#1EEFA4"/>
<stop offset="1" stop-color="#19C084"/>
</linearGradient>
</defs>
</svg>
