<svg width="18" height="18" viewBox="0 0 18 18" fill="none" xmlns="http://www.w3.org/2000/svg">
<path d="M13.05 1C12.255 0.999888 11.4717 1.18562 10.7667 1.54143C10.0616 1.89724 9.45556 2.41262 9 3.04381C8.54444 2.41262 7.9384 1.89724 7.23333 1.54143C6.52826 1.18562 5.74499 0.999888 4.95 1C3.63718 1 2.37813 1.50525 1.44982 2.40461C0.521516 3.30397 0 4.52376 0 5.79564C0 10.7822 5.85 14.8969 9 17C12.15 14.8969 18 10.7822 18 5.79564C18 5.16587 17.872 4.54226 17.6232 3.96043C17.3744 3.37859 17.0098 2.84993 16.5502 2.40461C16.0905 1.95929 15.5448 1.60605 14.9443 1.36505C14.3437 1.12404 13.7 1 13.05 1V1Z" fill="#3A7DFF"/>
</svg>
